<svg id="Ebene_1" data-name="Ebene 1" xmlns="http://www.w3.org/2000/svg" viewBox="0 0 156.31 112.27"><defs><style>.cls-1{fill:none;stroke:#fff;stroke-miterlimit:10;stroke-width:3px;}</style></defs><title>Candely_Kerzen</title><path class="cls-1" d="M85.15,19.18a7,7,0,0,1-14,0c0-3.86,7-16.15,7-16.15S85.15,15.32,85.15,19.18Z"/><rect class="cls-1" x="62.5" y="31.35" width="31.31" height="79.42"/><line class="cls-1" x1="78.15" y1="26.17" x2="78.15" y2="31.35"/><path class="cls-1" d="M123.82,44.18a7,7,0,0,1-14,0c0-3.86,7-16.15,7-16.15S123.82,40.32,123.82,44.18Z"/><rect class="cls-1" x="107.17" y="56.35" width="19.31" height="54.42"/><line class="cls-1" x1="116.83" y1="51.17" x2="116.83" y2="56.35"/><path class="cls-1" d="M44.65,34.18a7,7,0,0,1-14,0c0-3.86,7-16.15,7-16.15S44.65,30.32,44.65,34.18Z"/><rect class="cls-1" x="26" y="46.35" width="23.31" height="64.42"/><line class="cls-1" x1="37.65" y1="41.17" x2="37.65" y2="46.35"/><line class="cls-1" y1="110.77" x2="156.31" y2="110.77"/></svg>