<svg id="Ebene_1" data-name="Ebene 1" xmlns="http://www.w3.org/2000/svg" viewBox="0 0 31.44 28.45"><defs><style>.cls-1,.cls-2{fill:none;stroke:#fff;stroke-linejoin:round;stroke-width:0.5px;}.cls-2{stroke-linecap:round;}</style></defs><title>Candely_Kirche</title><polygon class="cls-1" points="31.19 28.2 31.19 16.34 20.13 12.83 20.13 6.34 15.72 4.35 11.31 6.34 11.31 12.83 0.25 16.34 0.25 28.2 31.19 28.2"/><circle class="cls-2" cx="15.72" cy="9.59" r="2.21"/><path class="cls-1" d="M11.34,27.94V22.25a4.39,4.39,0,0,1,4.37-4.37h0a4.39,4.39,0,0,1,4.37,4.37V28"/><line class="cls-2" x1="15.72" y1="4.35" x2="15.72"/><line class="cls-2" x1="14.34" y1="1.5" x2="17.09" y2="1.5"/><line class="cls-2" x1="15.72" y1="28.13" x2="15.72" y2="17.87"/><line class="cls-2" x1="14.57" y1="24.04" x2="14.57" y2="23.01"/><line class="cls-2" x1="16.87" y1="24.04" x2="16.87" y2="23.01"/></svg>