<?xml version="1.0" encoding="UTF-8" standalone="no"?>
<!-- Generator: Adobe Illustrator 20.1.0, SVG Export Plug-In . SVG Version: 6.00 Build 0)  -->

<svg
   xmlns:dc="http://purl.org/dc/elements/1.1/"
   xmlns:cc="http://creativecommons.org/ns#"
   xmlns:rdf="http://www.w3.org/1999/02/22-rdf-syntax-ns#"
   xmlns:svg="http://www.w3.org/2000/svg"
   xmlns="http://www.w3.org/2000/svg"
   xmlns:sodipodi="http://sodipodi.sourceforge.net/DTD/sodipodi-0.dtd"
   xmlns:inkscape="http://www.inkscape.org/namespaces/inkscape"
   version="1.1"
   id="Ebene_1"
   x="0px"
   y="0px"
   viewBox="0 0 80.000002 39.999999"
   xml:space="preserve"
   inkscape:version="0.91 r13725"
   sodipodi:docname="cc.svg"
   width="80"
   height="40"
   shape-rendering="geometricPrecision"><metadata
     id="metadata23"><rdf:RDF><cc:Work
         rdf:about=""><dc:format>image/svg+xml</dc:format><dc:type
           rdf:resource="http://purl.org/dc/dcmitype/StillImage" /><dc:title></dc:title></cc:Work></rdf:RDF></metadata><defs
     id="defs21" /><sodipodi:namedview
     pagecolor="#ffffff"
     bordercolor="#666666"
     borderopacity="1"
     objecttolerance="10"
     gridtolerance="10"
     guidetolerance="10"
     inkscape:pageopacity="0"
     inkscape:pageshadow="2"
     inkscape:window-width="1920"
     inkscape:window-height="1017"
     id="namedview19"
     showgrid="false"
     inkscape:zoom="9.5288607"
     inkscape:cx="40.757273"
     inkscape:cy="24.881228"
     inkscape:window-x="-8"
     inkscape:window-y="376"
     inkscape:window-maximized="1"
     inkscape:current-layer="Ebene_1"
     fit-margin-top="0"
     fit-margin-left="0"
     fit-margin-right="0"
     fit-margin-bottom="0" /><style
     type="text/css"
     id="style3">
	.st0{fill:none;stroke:#999999;stroke-linecap:round;stroke-linejoin:round;}
</style><path
     class="st0"
     d="M 2.5175079,12.837994 31.363108,5.0338752 c 1.481795,-0.3951453 2.96359,0.4939316 3.358735,1.8769401 l 4.642956,16.9912437 c 0.395146,1.481795 -0.493931,2.963589 -1.87694,3.358735 L 8.5434724,34.966125 C 7.0616779,35.36127 5.5798833,34.472193 5.1847381,33.089186 L 0.64056808,16.097941 C 0.24542294,14.714933 1.0357134,13.233139 2.5175079,12.837994 Z"
     id="path7"
     inkscape:connector-curvature="0"
     style="fill:none;stroke:#000000;stroke-width:0.987863;stroke-linecap:round;stroke-linejoin:round;stroke-opacity:1" /><line
     class="st0"
     x1="1.2332863"
     y1="18.370024"
     x2="35.31456"
     y2="9.0841141"
     id="line9"
     style="fill:none;stroke:#000000;stroke-width:0.987863;stroke-linecap:round;stroke-linejoin:round;stroke-opacity:1" /><line
     class="st0"
     x1="2.6162939"
     y1="23.408125"
     x2="36.697571"
     y2="14.122213"
     id="line11"
     style="fill:none;stroke:#000000;stroke-width:0.987863;stroke-linecap:round;stroke-linejoin:round;stroke-opacity:1" /><path
     class="st0"
     d="m 34.227912,24.099631 c -0.889077,1.778154 -3.062376,2.469658 -4.840529,1.580581 -1.778154,-0.889076 -2.469658,-3.062374 -1.580581,-4.840528 0.889077,-1.778154 3.062376,-2.469658 4.840529,-1.580581 0.09879,0 0.09879,0.09879 0.197572,0.09879"
     id="path13"
     inkscape:connector-curvature="0"
     style="fill:none;stroke:#000000;stroke-width:0.987863;stroke-linecap:round;stroke-linejoin:round;stroke-opacity:1" /><line
     class="st0"
     x1="25.435928"
     y1="23.012981"
     x2="29.980101"
     y2="21.72876"
     id="line15"
     style="fill:none;stroke:#000000;stroke-width:0.987863;stroke-linecap:round;stroke-linejoin:round;stroke-opacity:1" /><line
     class="st0"
     x1="25.929861"
     y1="24.791136"
     x2="30.474031"
     y2="23.6057"
     id="line17"
     style="fill:none;stroke:#000000;stroke-width:0.987863;stroke-linecap:round;stroke-linejoin:round;stroke-opacity:1" /><path
     class="st0"
     d="m 42.564576,12.837994 28.8456,-7.8041191 c 1.481795,-0.395145 2.96359,0.493932 3.358735,1.87694 l 4.642956,16.9912441 c 0.395146,1.481795 -0.493931,2.963589 -1.87694,3.358735 L 48.59054,34.966125 c -1.481794,0.395145 -2.963589,-0.493932 -3.358734,-1.876939 l -4.54417,-16.991245 c -0.395145,-1.383008 0.395145,-2.864802 1.87694,-3.259947 z"
     id="path7-2"
     inkscape:connector-curvature="0"
     style="fill:none;stroke:#999999;stroke-width:0.987863;stroke-linecap:round;stroke-linejoin:round;stroke-opacity:1;fill-opacity:1" /><line
     class="st0"
     x1="41.280357"
     y1="18.370022"
     x2="75.361626"
     y2="9.0841141"
     id="line9-9"
     style="fill:none;stroke:#999999;stroke-width:0.987863;stroke-linecap:round;stroke-linejoin:round;stroke-opacity:1;fill-opacity:1" /><line
     class="st0"
     x1="42.663364"
     y1="23.408123"
     x2="76.744637"
     y2="14.122211"
     id="line11-2"
     style="fill:none;stroke:#999999;stroke-width:0.987863;stroke-linecap:round;stroke-linejoin:round;stroke-opacity:1;fill-opacity:1" /><path
     class="st0"
     d="m 74.27498,24.099631 c -0.889077,1.778154 -3.062376,2.469658 -4.840529,1.580581 -1.778154,-0.889076 -2.469658,-3.062374 -1.580581,-4.840528 0.889077,-1.778154 3.062376,-2.469658 4.840529,-1.580581 0.09879,0 0.09879,0.09879 0.197572,0.09879"
     id="path13-4"
     inkscape:connector-curvature="0"
     style="fill:none;stroke:#999999;stroke-width:0.987863;stroke-linecap:round;stroke-linejoin:round;stroke-opacity:1;fill-opacity:1" /><line
     class="st0"
     x1="65.482994"
     y1="23.012981"
     x2="70.027168"
     y2="21.72876"
     id="line15-6"
     style="fill:none;stroke:#999999;stroke-width:0.987863;stroke-linecap:round;stroke-linejoin:round;stroke-opacity:1;fill-opacity:1" /><line
     class="st0"
     x1="65.976929"
     y1="24.791134"
     x2="70.521095"
     y2="23.605698"
     id="line17-8"
     style="fill:none;stroke:#999999;stroke-width:0.987863;stroke-linecap:round;stroke-linejoin:round;stroke-opacity:1;fill-opacity:1" /></svg>
