<svg xmlns="http://www.w3.org/2000/svg" viewBox="0 0 94 94"><defs><style>.cls-1{fill:#333;}</style></defs><title>Artboard 1</title><path class="cls-1" d="M47.81,5c.69,0,1.5.11,1.57.59a66.9,66.9,0,0,1-.86,6.9L50,15.81h.08c.52,0,.56-.34.56-.34l.15-2.62L54.16,8.2c.28,0,.62,1,.62,1.49s-.18,5.79-.38,7.67a2.18,2.18,0,0,1-2.13,2.23h-.17A6,6,0,0,1,50,18.91l-1.77,1.61a2.73,2.73,0,0,1,.16.92,2.18,2.18,0,0,1-1.13,2l-.51,1.32-.51-1.32a2.18,2.18,0,0,1-1.13-2,2.72,2.72,0,0,1,.16-.92L43.5,18.9a6,6,0,0,1-2.12.68,2.18,2.18,0,0,1-2.3-2.06v-.17c-.23-1.88-.45-7.14-.45-7.67s.34-1.49.62-1.49l3.38,4.63.15,2.62s0,.34.56.34h.08l1.46-3.32A67,67,0,0,1,44,5.56c.07-.49.93-.59,1.67-.59a9.28,9.28,0,0,1,1.13,0,8.16,8.16,0,0,1,1-.06m0-.75h0a9.25,9.25,0,0,0-1,.06c-.33,0-.67-.06-1-.06-1.47,0-2.28.41-2.41,1.23a52.17,52.17,0,0,0,.83,6.91l-.67,1.51-.06-1.07a.75.75,0,0,0-.14-.4L39.94,7.76a.75.75,0,0,0-.31-.26,1,1,0,0,0-.31-.06.94.94,0,0,0-.68.3,3.28,3.28,0,0,0-.69,1.94c0,.48.18,5.83.38,7.75a2.92,2.92,0,0,0,2.94,2.9h.11a5.42,5.42,0,0,0,2-.54l1.06,1a3.5,3.5,0,0,0-.06.67A3,3,0,0,0,45.63,24L46,25.06a.75.75,0,0,0,1.4,0L47.85,24a3,3,0,0,0,1.28-2.57,3.51,3.51,0,0,0-.06-.67l1.06-1a5.4,5.4,0,0,0,2,.54h0a2.92,2.92,0,0,0,3-2.84V17.4c.2-1.92.38-7.26.38-7.75a3.28,3.28,0,0,0-.69-1.94.94.94,0,0,0-.68-.3,1,1,0,0,0-.31.06.75.75,0,0,0-.34.26l-3.38,4.63a.75.75,0,0,0-.14.4L50,13.83l-.67-1.51a52.17,52.17,0,0,0,.83-6.91q-.19-1.23-2.31-1.23Z"/><path class="cls-1" d="M53.15,41.47V41.1H49.29v-4a.37.37,0,0,0-.37-.37H44.59a.37.37,0,0,0-.37.38v4H40.36a.37.37,0,0,0-.37.38V45.8a.37.37,0,0,0,.38.37h3.85V56.92a.37.37,0,0,0,.38.37h4.33a.37.37,0,0,0,.37-.37V46.17h3.86a.37.37,0,0,0,.37-.37V41.47a.37.37,0,0,0-.37-.37v.38h-.37v4H48.92a.37.37,0,0,0-.37.38V56.54H45V45.8a.37.37,0,0,0-.37-.37H40.73V41.85h3.85a.37.37,0,0,0,.37-.37v-4h3.58v4a.37.37,0,0,0,.38.37h4.23v-.37h0Z"/><path class="cls-1" d="M37.12,74.53l.11-.13A16,16,0,0,1,39,72.73a4.53,4.53,0,0,1,2.4-1.19,5.89,5.89,0,0,1,2.09.73c1.37.68,3.07,1.71,4.62,2.57.78.43,1.51.82,2.17,1.11a4.64,4.64,0,0,0,1.7.48,2.73,2.73,0,0,0,1.75-1A18.4,18.4,0,0,0,56,72.32c.62-1,1-1.83,1-1.84a.37.37,0,1,0-.67-.34l-.13.24a31.32,31.32,0,0,1-1.91,3.12A11,11,0,0,1,53,75.07a1.82,1.82,0,0,1-1,.6,5.82,5.82,0,0,1-2-.72c-1.36-.68-3.06-1.71-4.62-2.57-.78-.43-1.52-.82-2.19-1.11a4.75,4.75,0,0,0-1.73-.48,3.54,3.54,0,0,0-1.69.54A14.38,14.38,0,0,0,36.54,74a.38.38,0,0,0,.57.49Z"/><path class="cls-1" d="M37.14,80.47l.11-.13A15.78,15.78,0,0,1,39,78.66a4.45,4.45,0,0,1,2.37-1.19,5.89,5.89,0,0,1,2.09.73c1.37.68,3.07,1.71,4.62,2.57.78.43,1.51.82,2.17,1.11a4.64,4.64,0,0,0,1.7.48,2.74,2.74,0,0,0,1.75-1,18.39,18.39,0,0,0,2.26-3.09c.62-1,1-1.83,1-1.84a.37.37,0,0,0-.67-.34l-.13.24a31.31,31.31,0,0,1-1.91,3.12A11,11,0,0,1,53,81a1.82,1.82,0,0,1-1,.6,5.82,5.82,0,0,1-2-.72c-1.36-.68-3.06-1.71-4.62-2.57-.78-.43-1.52-.82-2.19-1.11a4.75,4.75,0,0,0-1.73-.48,3.48,3.48,0,0,0-1.68.54A14.16,14.16,0,0,0,36.57,80a.38.38,0,0,0,.57.48Z"/><path class="cls-1" d="M37.14,86.41l.11-.13A15.88,15.88,0,0,1,39,84.58a4.42,4.42,0,0,1,2.37-1.2,5.89,5.89,0,0,1,2.09.73c1.37.68,3.07,1.71,4.62,2.57.78.43,1.51.82,2.17,1.11a4.64,4.64,0,0,0,1.7.48,2.74,2.74,0,0,0,1.75-1,18.39,18.39,0,0,0,2.26-3.09c.62-1,1-1.83,1-1.84a.37.37,0,0,0-.67-.34l-.13.24a31.3,31.3,0,0,1-1.91,3.12A11,11,0,0,1,53,86.91a1.82,1.82,0,0,1-1,.6,5.82,5.82,0,0,1-2-.72c-1.36-.68-3.06-1.71-4.62-2.57-.78-.43-1.52-.82-2.19-1.11a4.75,4.75,0,0,0-1.73-.48,3.46,3.46,0,0,0-1.68.55,14.22,14.22,0,0,0-3.11,2.76.38.38,0,1,0,.58.48Z"/><path class="cls-1" d="M35.08.38V.75H58.42a2.46,2.46,0,0,1,2.46,2.46V26.55A2.46,2.46,0,0,1,58.42,29H35.08a2.46,2.46,0,0,1-2.46-2.46V3.21A2.46,2.46,0,0,1,35.08.75V0a3.21,3.21,0,0,0-3.21,3.21h0V26.55h0a3.21,3.21,0,0,0,3.21,3.21H58.42a3.2,3.2,0,0,0,3.21-3.21V3.21A3.2,3.2,0,0,0,58.42,0H35.08Z"/><path class="cls-1" d="M35.08,32.5v.37H58.42a2.46,2.46,0,0,1,2.46,2.46V58.67a2.46,2.46,0,0,1-2.46,2.46H35.08a2.46,2.46,0,0,1-2.46-2.46V35.33a2.46,2.46,0,0,1,2.46-2.46v-.75a3.21,3.21,0,0,0-3.21,3.21h0V58.67h0a3.2,3.2,0,0,0,3.21,3.21H58.42a3.2,3.2,0,0,0,3.21-3.21V35.33a3.2,3.2,0,0,0-3.21-3.21H35.08Z"/><path class="cls-1" d="M35.08,64.62V65H58.42a2.46,2.46,0,0,1,2.46,2.46V90.79a2.46,2.46,0,0,1-2.46,2.46H35.08a2.46,2.46,0,0,1-2.46-2.46V67.45A2.46,2.46,0,0,1,35.08,65v-.75a3.2,3.2,0,0,0-3.21,3.21h0V90.79h0A3.21,3.21,0,0,0,35.08,94H58.42a3.21,3.21,0,0,0,3.21-3.21V67.45a3.2,3.2,0,0,0-3.21-3.21H35.08Z"/></svg>
